#!OML:ASF H:\Terrain\Walking\May29\JustinRory\Justin.ASF
:FULLY-SPECIFIED
:DEGREES
1
root 13.0929 17.8295 11.9828 -171.448 -10.6225 -178.268
lowerback 4.72266 2.57411 -2.35375
upperback 1.811 3.26616 1.1734
thorax -0.98311 1.59405 2.33978
lowerneck -12.7072 -5.20039 -12.6638
upperneck 15.6486 -5.52734 3.99883
head 7.3825 -3.13088 2.78343
rclavicle -6.85807e-014 1.51076e-014
rhumerus -26.9367 -12.429 -77.3675
rradius 34.0448
rwrist -9.51565
rhand -9.22326 18.694
rfingers 7.12502
rthumb 16.7315 -10.605
lclavicle -6.85807e-014 1.51076e-014
lhumerus -31.0807 11.5608 79.237
lradius 33.4995
lwrist -6.85699
lhand -0.131274 40.0177
lfingers 7.12502
lthumb 25.4646 68.3365
rfemur -13.6652 -0.495172 18.9845
rtibia 31.3327
rfoot -20.6756 -10.0372
rtoes -4.81093
lfemur -11.8904 -1.68747 -5.52213
ltibia 41.7096
lfoot -4.52432 12.458
ltoes -17.3125
2
root 13.1716 17.826 11.9162 -171.623 -10.2891 -178.11
lowerback 4.66302 2.54401 -2.36194
upperback 1.97056 3.22006 1.25286
thorax -0.788268 1.56299 2.43585
lowerneck -12.7346 -5.43295 -13.0115
upperneck 15.4899 -5.8284 4.39415
head 7.38417 -3.25077 2.93519
rclavicle -8.1949e-014 -3.97569e-015
rhumerus -26.4723 -12.1303 -77.5117
rradius 34.2272
rwrist -9.6232
rhand -7.46199 19.0112
rfingers 7.12502
rthumb 18.4265 -10.1361
lclavicle -8.1949e-014 -3.97569e-015
lhumerus -31.2158 12.0057 79.1756
lradius 33.1471
lwrist -7.15582
lhand 0.233381 39.7431
lfingers 7.12502
lthumb 25.8139 68.0116
rfemur -13.0584 -0.0873359 19.4204
rtibia 30.8785
rfoot -20.8503 -9.82125
rtoes -2.19987
lfemur -12.5099 -1.58894 -5.19187
ltibia 43.3285
lfoot -2.97212 12.8801
ltoes -13.49
3
root 13.2451 17.8249 11.8485 -171.76 -10.0934 -177.774
lowerback 4.6496 2.43164 -1.99426
upperback 2.03525 3.08148 1.2978
thorax -0.689457 1.49076 2.28687
lowerneck -12.6307 -5.62367 -13.2351
upperneck 15.1508 -6.0965 4.73161
head 7.29697 -3.34905 3.05464
rclavicle 1.2598e-014 -7.55382e-015
rhumerus -25.9346 -11.753 -77.8133
rradius 34.0598
rwrist -9.65733
rhand -9.32839 20.3159
rfingers 7.12502
rthumb 16.6303 -8.99158
lclavicle 1.2598e-014 -7.55382e-015
lhumerus -31.4319 12.2279 79.0911
lradius 32.9168
lwrist -7.20909
lhand 0.132369 39.9217
lfingers 7.12502
lthumb 25.7172 68.2042
rfemur -12.4117 0.110983 20.0602
rtibia 30.274
rfoot -20.841 -9.59243
rtoes 0.17642
lfemur -13.271 -1.66967 -4.68313
ltibia 44.943
lfoot -1.17174 13.2569
ltoes -15.3011
4
root 13.3156 17.8321 11.7815 -171.877 -9.78326 -177.523
lowerback 4.72962 2.43273 -1.64648
upperback 2.01193 3.09541 1.24497
thorax -0.737725 1.49962 2.03341
lowerneck -12.3651 -5.80008 -13.005
upperneck 14.9043 -6.38505 4.56239
head 7.18383 -3.4846 2.93525
rclavicle 3.54831e-014 6.95746e-015
rhumerus -25.893 -11.4628 -78.0296
rradius 34.1924
rwrist -9.66546
rhand -11.4869 21.9918
rfingers 7.12502
rthumb 14.5514 -7.47778
lclavicle 3.54831e-014 6.95746e-015
lhumerus -31.697 11.9996 79.0549
lradius 32.708
lwrist -7.24185
lhand 0.0806648 40.1886
lfingers 7.12502
lthumb 25.6676 68.4782
rfemur -11.8165 0.0747467 20.5949
rtibia 29.6297
rfoot -20.6842 -9.15212
rtoes -0.865982
lfemur -14.0404 -1.70466 -4.33045
ltibia 46.4962
lfoot -0.328345 13.12
ltoes -14.7374
5
root 13.3844 17.8465 11.7144 -171.957 -9.24508 -177.596
lowerback 4.93042 2.52286 -1.74817
upperback 1.93357 3.21003 1.16545
thorax -0.936516 1.56047 1.99089
lowerneck -12.2151 -5.95697 -12.9501
upperneck 14.9813 -6.62396 4.44207
head 7.19904 -3.6126 2.86233
rclavicle -3.42904e-015 1.28216e-014
rhumerus -26.2231 -11.0537 -78.0833
rradius 34.7621
rwrist -9.79608
rhand -10.1767 20.8799
rfingers 7.12502
rthumb 15.8135 -8.49422
lclavicle -3.42904e-015 1.28216e-014
lhumerus -32.115 12.0249 79.0455
lradius 32.4575
lwrist -7.72164
lhand 0.146052 39.9707
lfingers 7.12502
lthumb 25.7303 68.2513
rfemur -11.2272 0.119117 20.725
rtibia 28.9031
rfoot -20.514 -8.65043
rtoes -1.99575
lfemur -14.6852 -1.66684 -4.44049
ltibia 48.0212
lfoot 0.0627322 13.1689
ltoes -11.4804
6
root 13.4487 17.8607 11.6403 -171.985 -8.67036 -177.433
lowerback 4.86647 2.54757 -1.64828
upperback 1.84122 3.25299 1.21648
thorax -0.995253 1.58508 1.98515
lowerneck -11.6783 -5.98127 -13.2544
upperneck 14.7593 -6.72615 4.72369
head 7.06364 -3.6594 3.00477
rclavicle -5.4467e-014 -1.88845e-015
rhumerus -26.3726 -10.6788 -78.0562
rradius 34.9811
rwrist -9.68991
rhand -8.33357 19.3679
rfingers 7.12502
rthumb 17.5879 -9.85654
lclavicle -5.4467e-014 -1.88845e-015
lhumerus -32.6605 12.2743 79.011
lradius 32.2309
lwrist -8.22996
lhand 0.252749 39.768
lfingers 7.12502
lthumb 25.8324 68.0337
rfemur -10.7335 0.389335 21.0973
rtibia 28.2116
rfoot -20.3946 -8.47469
rtoes -1.81221
lfemur -15.3509 -1.49412 -4.32239
ltibia 49.4914
lfoot 0.679673 13.4202
ltoes -6.95571
7
root 13.5052 17.8633 11.5653 -172.066 -8.30354 -177.085
lowerback 4.75228 2.49169 -1.23306
upperback 1.74757 3.20239 1.30359
thorax -1.00779 1.56222 1.84833
lowerneck -11.0251 -5.9317 -13.3681
upperneck 14.5178 -6.75371 4.81637
head 6.88213 -3.67923 3.06633
rclavicle -3.25758e-014 -1.54058e-015
rhumerus -26.4162 -10.8734 -77.7686
rradius 35.4962
rwrist -10.9409
rhand -7.13735 19.3675
rfingers 7.12502
rthumb 18.7387 -9.74992
lclavicle -3.25758e-014 -1.54058e-015
lhumerus -33.2519 12.3584 78.9768
lradius 32.0916
lwrist -8.38071
lhand 0.619171 39.6888
lfingers 7.12502
lthumb 26.1833 67.903
rfemur -10.1672 0.670477 21.6857
rtibia 27.5869
rfoot -20.3606 -8.41897
rtoes -1.39063
lfemur -16.0663 -1.33207 -3.9806
ltibia 50.9199
lfoot 1.27784 13.29
ltoes -0.525549
8
root 13.5585 17.8626 11.4944 -172.147 -7.99804 -177.022
lowerback 4.85409 2.44387 -1.01839
upperback 1.64276 3.15123 1.24964
thorax -1.15544 1.54014 1.66897
lowerneck -10.8491 -5.92114 -13.1878
upperneck 14.592 -6.78342 4.65232
head 6.86607 -3.70524 2.98475
rclavicle 1.21756e-015 2.28602e-015
rhumerus -26.5409 -10.4574 -77.8654
rradius 35.7124
rwrist -11.001
rhand -8.91751 20.2987
rfingers 7.12502
rthumb 17.0258 -8.97512
lclavicle 1.21756e-015 2.28602e-015
lhumerus -33.7532 12.3744 78.925
lradius 31.9749
lwrist -8.50688
lhand 1.28993 39.6386
lfingers 7.12502
lthumb 26.8253 67.7559
rfemur -9.59416 0.655097 21.9412
rtibia 27.0045
rfoot -20.2442 -8.1104
rtoes -0.927011
lfemur -16.723 -1.25151 -3.96726
ltibia 52.2756
lfoot 1.62623 12.6084
ltoes 4.55426
9
root 13.6144 17.8645 11.4261 -172.079 -7.44331 -176.922
lowerback 4.90093 2.54069 -0.836006
upperback 1.45227 3.29675 1.14666
thorax -1.36624 1.6187 1.44529
lowerneck -10.6471 -5.98773 -13.0741
upperneck 14.6445 -6.95345 4.79015
head 6.86341 -3.77557 2.99851
rclavicle -1.8487e-014 -5.54112e-015
rhumerus -26.6995 -10.3093 -78.0236
rradius 35.7512
rwrist -10.5996
rhand -9.94771 20.2325
rfingers 7.12502
rthumb 16.034 -9.12404
lclavicle -1.8487e-014 -5.54112e-015
lhumerus -34.2298 12.2605 78.8844
lradius 31.8776
lwrist -8.79417
lhand 1.86531 39.5682
lfingers 7.12502
lthumb 27.3758 67.5998
rfemur -9.24446 0.583441 22.1868
rtibia 26.4375
rfoot -20.079 -7.55371
rtoes -0.650642
lfemur -17.4839 -0.987528 -3.96059
ltibia 53.5853
lfoot 1.4803 11.8022
ltoes 5.37245
10
root 13.6714 17.8622 11.3562 -172.113 -6.79967 -176.699
lowerback 5.03251 2.65466 -0.736244
upperback 1.28784 3.45907 1.25246
thorax -1.61438 1.70273 1.47666
lowerneck -10.6201 -6.0119 -13.3115
upperneck 14.9022 -7.00815 5.01185
head 6.96382 -3.80829 3.102
rclavicle -4.27139e-014 7.30534e-015
rhumerus -26.8788 -10.2854 -77.8016
rradius 35.8618
rwrist -10.4389
rhand -10.0713 20.4017
rfingers 7.12502
rthumb 15.915 -8.96432
lclavicle -4.27139e-014 7.30534e-015
lhumerus -34.8774 12.3366 79.034
lradius 31.9695
lwrist -9.09392
lhand 2.19776 39.5716
lfingers 7.12502
lthumb 27.6937 67.5526
rfemur -8.77075 0.797927 22.5969
rtibia 25.8244
rfoot -19.9592 -7.16105
rtoes -1.16181
lfemur -18.1916 -0.637485 -3.84494
ltibia 54.884
lfoot 0.738369 10.8502
ltoes 2.97866
11
root 13.7231 17.8578 11.2831 -172.235 -6.2663 -176.705
lowerback 5.06289 2.65493 -0.854277
upperback 1.34663 3.45029 1.40813
thorax -1.58723 1.69602 1.70292
lowerneck -11.0122 -5.93442 -13.6528
upperneck 15.2062 -6.8139 5.09709
head 7.12837 -3.73115 3.19456
rclavicle -2.32827e-014 -6.85807e-015
rhumerus -26.7998 -9.62515 -77.6299
rradius 36.139
rwrist -10.2584
rhand -10.9453 20.3116
rfingers 7.12502
rthumb 15.0732 -9.11968
lclavicle -2.32827e-014 -6.85807e-015
lhumerus -35.2378 12.9676 79.2332
lradius 31.9355
lwrist -9.57409
lhand 2.50499 39.5567
lfingers 7.12502
lthumb 27.9874 67.4901
rfemur -8.13056 1.00784 22.7939
rtibia 25.1988
rfoot -19.7799 -7.08907
rtoes -2.78301
lfemur -18.7978 -0.45769 -4.03298
ltibia 56.1581
lfoot -0.246677 9.61415
ltoes 1.19235
12
root 13.7682 17.8509 11.2148 -172.176 -5.89988 -176.533
lowerback 4.81504 2.65794 -0.516572
upperback 1.44214 3.46633 1.40605
thorax -1.33136 1.70005 1.52618
lowerneck -11.3386 -5.91633 -13.4887
upperneck 15.2404 -6.73496 4.93274
head 7.17713 -3.69076 3.11552
rclavicle -1.03865e-014 9.93923e-017
rhumerus -26.5158 -9.72205 -77.4977
rradius 36.5638
rwrist -11.2265
rhand -10.1593 19.9556
rfingers 7.12502
rthumb 15.8302 -9.41722
lclavicle -1.03865e-014 9.93923e-017
lhumerus -35.1337 13.6143 79.2347
lradius 31.444
lwrist -10.0279
lhand 2.19868 38.5041
lfingers 7.12502
lthumb 27.6946 66.4849
rfemur -7.72881 0.951833 23.1614
rtibia 24.6677
rfoot -19.5964 -7.04027
rtoes -4.24462
lfemur -19.6909 -0.245464 -4.02236
ltibia 57.3973
lfoot -0.975533 8.12899
ltoes 0.246382
13
root 13.812 17.8398 11.1494 -172.074 -5.5288 -176.362
lowerback 4.73956 2.72356 -0.0583132
upperback 1.38002 3.57708 1.26005
thorax -1.3191 1.75648 1.11666
lowerneck -11.4718 -5.89446 -13.0815
upperneck 15.3928 -6.72346 4.67449
head 7.22465 -3.68646 2.96382
rclavicle 7.96381e-015 -5.66536e-015
rhumerus -26.4428 -10.1315 -77.4857
rradius 36.6779
rwrist -11.745
rhand -9.85461 20.7101
rfingers 7.12502
rthumb 16.1236 -8.6392
lclavicle 7.96381e-015 -5.66536e-015
lhumerus -35.2188 13.4992 79.2625
lradius 31.177
lwrist -9.9248
lhand 1.82288 37.6353
lfingers 7.12502
lthumb 27.3352 65.6733
rfemur -7.42461 0.887558 23.4642
rtibia 24.291
rfoot -19.6569 -6.5175
rtoes -3.45356
lfemur -20.6213 0.0862151 -4.01792
ltibia 58.5104
lfoot -1.64112 6.35448
ltoes -1.44644
